/* XPM */
static char *_4[] = {
/* columns rows colors chars-per-pixel */
"64 64 42 1 ",
"  c #003400",
". c #003C00",
"X c #004300",
"o c #004C00",
"O c #005400",
"+ c #005B00",
"@ c #006400",
"# c #006A00",
"$ c #007400",
"% c #017C00",
"& c #0A7E00",
"* c #147C00",
"= c #1C7B00",
"- c #237A00",
"; c #2A7900",
": c #347700",
"> c #3A7600",
", c #436C00",
"< c #5E6F00",
"1 c #437400",
"2 c #4B7300",
"3 c #557100",
"4 c #5B7000",
"5 c #646E00",
"6 c #696E00",
"7 c #746C00",
"8 c #7C6A00",
"9 c #BD5F00",
"0 c #8D6700",
"q c #856900",
"w c #8A6800",
"e c #956600",
"r c #9A6500",
"t c #A46300",
"y c #AC6200",
"u c #B36100",
"i c #B96000",
"p c #C35E00",
"a c #CE5C00",
"s c #D15B00",
"d c #008000",
"f c None",
/* pixels */
"ffffffffffffffffffffffffffffffffffffffffffffffffffffffffffffffff",
"ffffffffffffffffffffffffff XoOO++OOoX ffffffffffffffffffffffffff",
"ffffffffffffffffffffff.O@#$%ddddddd%%%#@O.ffffffffffffffffffffff",
"fffffffffffffffffff O#$ddddddddddddd%dddd$#O fffffffffffffffffff",
"fffffffffffffffff.+$dddddddddddddddddddddddd$+.fffffffffffffffff",
"fffffffffffffff +%dddddddddddddd%dddddddddddd%%+ fffffffffffffff",
"ffffffffffffffo$dddddddddddddddddddddddddddddddd$offffffffffffff",
"ffffffffffff @%dddddddddddddddddddddddddddddddddd%@ ffffffffffff",
"fffffffffffX#ddddddddddddddddddddddddddddddddddddd%$Xfffffffffff",
"ffffffffffo%dddddddddddddddddddddddddddddddddddddddd$offffffffff",
"fffffffffo%ddddddddddd%dddddddddddddddddddddddddddddd%offfffffff",
"ffffffffo%dddddddd&ddddddddddddddddddddddddddddddddddd%offffffff",
"fffffffX%ddddddddddddddddddddddddddddddddd%dddddddddddd%Xfffffff",
"ffffff.$dddddddddddddddddddddddddddddd%ddddddddddddddddd$.ffffff",
"ffffff#d%dddddddddddddddddddddddddddddddddddddddddddddd%d#ffffff",
"fffff+dddddddddddddddddddddddddddddddddddddddddd%ddddddddd+fffff",
"ffff.%dddddddddddddddddddddddddddddddddddddddddddddddddddd%.ffff",
"ffff@dddddddddddddddddddddddddddddddddddddddddddddddddddddd@ffff",
"fffo%d&dddddddddddddddddddddddddddddddddddddddddddddddd%ddd%offf",
"fff@d6rrrrtrtttrtttrtrtyrr5dddddddddd%dddddddddddddddddddddd@fff",
"ffX%dwsssssssssssssssssssswddddddddddddddddddddddddddddddddd%Xff",
"ff+ddwssaaaaaaasaaaassaassqddddddddd&dddddddddddddddddddddddd+ff",
"ff$ddwssaaaaaaay9sasaaaass0dddddddddddddddddddddddddddddddddd$ff",
"fX%ddwsaaaaaaaa38saaaaaass0dddddddddddddddddddddddddddddddddd%Xf",
"f+dddwsasaaaast*>psssaaaasqddddddddddd%ddddddddddddddddddddddd+f",
"f#dddwsaaaaasa<ddesaaaaaasqddddddddddddddddddddddddddddddddddd#f",
" $dddwssaaaaay=dd3psaaaaasqddddddddddddddddddddddddddddddddddd$ ",
".%dd%qsaaaasa7ddddtsaaaaasqddddd*&dddddddd-53dddddddddddddddd%%.",
"o%dddwsaaaaa9;%&dd<saaaaasqdd-0yy6dddddddd1ay=dddddddddddddddddo",
"Oddddwsasaaaq&&61d=usasaasqddtsssw=:>:dd=>7su**>>=*>;d;>*ddddd%O",
"Oddddwsaaaap>d;i0dd8saaaasqd3spw6:7aap7-tpasu:rpar39y>yi:ddddddO",
"+ddddwssaaae&d6sp:d:9aaaasqd<suddd8i9st<apisy8s9ia6taeat*ddddddO",
"+ddddwsaasa4d=yas8ddwsaaasqd5st&dd;6ysywst7auesuusw6saa5ddddddd+",
"+ddddwsaastdd4aasi;d1psaasqd<su-ddwaps9ysr3auespyy74aaa2dddddddO",
"O%dddwsaaa5ddtsssa5d&tsaasqd3ase5<pprpptsieau0s973;wa9aw&ddddddO",
"o%dddwsasu-d2y50pst*d4aaasqd=ysss99spsp8psasu<pssa799599-%dddd%X",
".%%ddwsas8dd81dd1rp3d=usaswdd>ruuw5urty>qyqrr=5yyr6yw*wy1ddddd%.",
" $dddwssi:d>0=dddd12dd6sasqddd&**dd-dddd&*&&*dd***&*&d&*dddddd$ ",
"f#dddwss0dd8ay5ddddddd;iasqddddddddddddddddddddd%ddddddddddddd#f",
"f+ddd0sp2d-yssar3ddddddwssqddddddddddddddddddddddddddddddddddd+f",
"fo%d%wsrdd6saaasae1dddd1pswdddddddddddddd%ddddddddddddddddddd%Xf",
"ff$ddws<d*tsaaaaaapw>dddrsqdddddddddddddddddddddddddddddddddd$ff",
"ff+ddwu-d3paaaaaasaspq1d3sqdddddddddddddddddddddddddd%ddddddd+ff",
"ffX%dw7dd0saasaaaaaass9q2uwdddddddddddddddddd%dddddddddddddd%Xff",
"fff@dww<79saasaaaaaaaass9aqddddddddddddddddddddddddddddddddd@fff",
"fffX%wsasaasaaaaaaaaaaaassqdddddddddddddddddddddddddddddddd%offf",
"ffff@wsssssssssssssssssssswdddddddddddddddddddddddddddddddd@ffff",
"ffffX,665666565666665665651ddddddddddddddddddddddddddddddd%.ffff",
"fffff+ddddddddddddddddddddddddddddddddddddddddddddddddddddOfffff",
"ffffff#dddddddddddddddddddddddddddddddddddddddddddddddddd#ffffff",
"ffffff.$dddddddddddddddddddddddddddddddddddddddddddddd%d$.ffffff",
"fffffffX%dddddddddddddddddddddddddddddd%ddddd%dd%dddddd%Xfffffff",
"ffffffffo%dddddddddddddddddddddddddddddddddddddddddddd%offffffff",
"fffffffffo%dddddddddddddddddddddddddddddddddddddddddd%offfffffff",
"ffffffffffo$dddddddddddddddddddddddddddddddddddddddd$offffffffff",
"fffffffffffX$ddd%dddddddddddddddddddddddddddddddddd$Xfffffffffff",
"ffffffffffff @%dddddddddddddddddd%ddddddddddddddd%@ ffffffffffff",
"ffffffffffffffo$dddddddddddddddddddddddddddddddd$offffffffffffff",
"fffffffffffffff +%ddddddddddddddddddddddddd%dd%+ fffffffffffffff",
"fffffffffffffffff.+$ddddddddddddddddddddddd%$+.fffffffffffffffff",
"fffffffffffffffffff o#%%ddddddddddd%ddddd%#O fffffffffffffffffff",
"ffffffffffffffffffffff.O@#%%%dddddd%%$#@o.ffffffffffffffffffffff",
"ffffffffffffffffffffffffff .oOO++OOoX.ffffffffffffffffffffffffff",
"ffffffffffffffffffffffffffffffffffffffffffffffffffffffffffffffff"
};
