/* XPM */
static char *_28[] = {
/* columns rows colors chars-per-pixel */
"128 128 48 1 ",
"  c #000D00",
". c #001500",
"X c #001B00",
"o c #002400",
"O c #002C00",
"+ c #003400",
"@ c #003C00",
"# c #004300",
"$ c #004C00",
"% c #005300",
"& c #005C00",
"* c #006200",
"= c #006C00",
"- c #007400",
"; c #017E00",
": c #0B7E00",
"> c #147C00",
", c #1B7B00",
"< c #2F7700",
"1 c #247900",
"2 c #2A7800",
"3 c #347700",
"4 c #3C7500",
"5 c #5E6F00",
"6 c #457400",
"7 c #4B7300",
"8 c #537100",
"9 c #5B7000",
"0 c #636F00",
"q c #6C6D00",
"w c #736C00",
"e c #7B6A00",
"r c #607000",
"t c #BC5F00",
"y c #8E6700",
"u c #846900",
"i c #896800",
"p c #936600",
"a c #996500",
"s c #A36300",
"d c #AB6200",
"f c #B36100",
"g c #B86000",
"h c #C45D00",
"j c #CE5C00",
"k c #D15C00",
"l c #008000",
"z c None",
/* pixels */
"zzzzzzzzzzzzzzzzzzzzzzzzzzzzzzzzzzzzzzzzzzzzzzzzzzzzzzzzzzzzzzzzzzzzzzzzzzzzzzzzzzzzzzzzzzzzzzzzzzzzzzzzzzzzzzzzzzzzzzzzzzzzzzzz",
"zzzzzzzzzzzzzzzzzzzzzzzzzzzzzzzzzzzzzzzzzzzzzzzzzzzzzzzzzzzzzzzzzzzzzzzzzzzzzzzzzzzzzzzzzzzzzzzzzzzzzzzzzzzzzzzzzzzzzzzzzzzzzzzz",
"zzzzzzzzzzzzzzzzzzzzzzzzzzzzzzzzzzzzzzzzzzzzzzzzzzzzzzzz.XooooooooooooX.zzzzzzzzzzzzzzzzzzzzzzzzzzzzzzzzzzzzzzzzzzzzzzzzzzzzzzzz",
"zzzzzzzzzzzzzzzzzzzzzzzzzzzzzzzzzzzzzzzzzzzzzzzzzz o+@#$&*=-;;;;;;-;-=*&$#@+o zzzzzzzzzzzzzzzzzzzzzzzzzzzzzzzzzzzzzzzzzzzzzzzzzz",
"zzzzzzzzzzzzzzzzzzzzzzzzzzzzzzzzzzzzzzzzzzzzzz X@%&=-;llllllllllllllllllll;-**$@X zzzzzzzzzzzzzzzzzzzzzzzzzzzzzzzzzzzzzzzzzzzzzz",
"zzzzzzzzzzzzzzzzzzzzzzzzzzzzzzzzzzzzzzzzzzzXo$*-;lllllllllllllllllllllllllllll;;-*$oXzzzzzzzzzzzzzzzzzzzzzzzzzzzzzzzzzzzzzzzzzzz",
"zzzzzzzzzzzzzzzzzzzzzzzzzzzzzzzzzzzzzzzz.O#*;;lllllllllllll;lllllllllllllllllllllll;*#O.zzzzzzzzzzzzzzzzzzzzzzzzzzzzzzzzzzzzzzzz",
"zzzzzzzzzzzzzzzzzzzzzzzzzzzzzzzzzzzzzzX@&-llllllllllllllllllllllllllllllllllllllllllll-&#.zzzzzzzzzzzzzzzzzzzzzzzzzzzzzzzzzzzzzz",
"zzzzzzzzzzzzzzzzzzzzzzzzzzzzzzzzzzzzo#=;llllllllllllllllllllllllllllllllllllllll;lllllll;=#ozzzzzzzzzzzzzzzzzzzzzzzzzzzzzzzzzzzz",
"zzzzzzzzzzzzzzzzzzzzzzzzzzzzzzzzzzo$-llllllllllllllll;llllllllllllllllllllllllllllllllllll;-$ozzzzzzzzzzzzzzzzzzzzzzzzzzzzzzzzzz",
"zzzzzzzzzzzzzzzzzzzzzzzzzzzzzzzzo$-llllllllllllllllllllllllllllllllllllllllllllllllllllllllll-$Xzzzzzzzzzzzzzzzzzzzzzzzzzzzzzzzz",
"zzzzzzzzzzzzzzzzzzzzzzzzzzzzzz.#=lllllllllllllllll;lllllllllllllllllllllllllllllllllllllllllll;=@.zzzzzzzzzzzzzzzzzzzzzzzzzzzzzz",
"zzzzzzzzzzzzzzzzzzzzzzzzzzzzzO&;llllllllllllllllllllllllllllllllllllllllllllllllllllllllllllllll;*O zzzzzzzzzzzzzzzzzzzzzzzzzzzz",
"zzzzzzzzzzzzzzzzzzzzzzzzzzzX$-llllllllllllllllllllllllllllllllllllllllllllllllllllllllllllllllllll-$Xzzzzzzzzzzzzzzzzzzzzzzzzzzz",
"zzzzzzzzzzzzzzzzzzzzzzzzzzO*;lllllllllllllllllllllllllllllll;llllll;llllllllllllllllllll;lllllllllll*ozzzzzzzzzzzzzzzzzzzzzzzzzz",
"zzzzzzzzzzzzzzzzzzzzzzzz.@-lllllllllllllllllllllllllllllllllllllllllllllllllllllllllllllllllllllllll;-#.zzzzzzzzzzzzzzzzzzzzzzzz",
"zzzzzzzzzzzzzzzzzzzzzzzX%;llllllllllllllllllllllllllllllllllllllllllllllllllllllllllllllllllllllllllll;%Xzzzzzzzzzzzzzzzzzzzzzzz",
"zzzzzzzzzzzzzzzzzzzzzzo&;;lllllllllllllllllllllllllllllllllllllllllllllllllllllllllllllllllllllllllll;l;*ozzzzzzzzzzzzzzzzzzzzzz",
"zzzzzzzzzzzzzzzzzzzzzO=llllllllllllllllllllllllllllllllllllllllllllllllllllllllllllllllllllllllllllllllll=ozzzzzzzzzzzzzzzzzzzzz",
"zzzzzzzzzzzzzzzzzzzz+-llllllllllllllllllllllllllllllllllllllllllllllllllllllllll;llllllll;llllllllllllllll-+zzzzzzzzzzzzzzzzzzzz",
"zzzzzzzzzzzzzzzzzzz+-llllllllllllllllllllllllllllllllllllllllllllllllllllllllllllllllllllllllllllllll;lllll-+zzzzzzzzzzzzzzzzzzz",
"zzzzzzzzzzzzzzzzzz@-lllllllllllllllllllllllllllllllllllllllllllllllllll;l;llllllllllllllllllllllllllllllllll-@zzzzzzzzzzzzzzzzzz",
"zzzzzzzzzzzzzzzzz+-llllllllllllllllllllllllllllllllllllllllllllllllllllllllllllllllllllllllllllllllllllllllll-+zzzzzzzzzzzzzzzzz",
"zzzzzzzzzzzzzzzz+-llllllllllllllllllllllllllllllllllllllllllllllllllllllllllllllll;lllllllllllllllllllllllllll-+zzzzzzzzzzzzzzzz",
"zzzzzzzzzzzzzzzo=llllllllllllllllllllllllllllllllllllllllllllllllllllll;lllllllllllllllllllllllllllllllllllllll=ozzzzzzzzzzzzzzz",
"zzzzzzzzzzzzzzo*llll;llll;lllllllllllllllllllllllllllllllllllllllllllllllllllllllllllllllllllllllllll;llllllllll*ozzzzzzzzzzzzzz",
"zzzzzzzzzzzzz.&llllllllllllllllllllllllllllllllllllllllllllllllllllllllllllllllllllllllllllll;lllllllllllllllllll&.zzzzzzzzzzzzz",
"zzzzzzzzzzzz.$;;llllllllllllllllllllllllllllllllllllllllllllllllllllllllllllllllllllllllll;llllllllllllllllllllll;$.zzzzzzzzzzzz",
"zzzzzzzzzzzz+;llllllllllllllllllllllllllllllllllllllllllllllllllllllllllllllllllll;lllllllllllllllllllllllllllllll;+zzzzzzzzzzzz",
"zzzzzzzzzzzo=lllllllllllllllllllllllllllllllllllllllllllllllllll;llllllllllllll;lllllllllllllllllllllllllllllllllll=ozzzzzzzzzzz",
"zzzzzzzzzz.&llllllllllllllll;lllllllllllllllllllllllllllllllllllllllllllllllllllllllllllllllllllllllllllllllllllllll%.zzzzzzzzzz",
"zzzzzzzzzz@;llllllllllllllllllllllllllllllllllllllllllllllllllllllllllllllllllllllllllllllllllll;lllllllllllllllllll;@zzzzzzzzzz",
"zzzzzzzzzo-lllllllllllllllllllllllllllllllllllllllllllllllllllll;llllllllllllllllllllllllllllllllllllllllllllllllllll-ozzzzzzzzz",
"zzzzzzzz %llllllllllllllllllllllllllllllllllllllllllllllllllllllllllllllllllllllllllllllllllllllllllllllllllllllllllll$ zzzzzzzz",
"zzzzzzzzO-llllllllllllllllllllllllllllllllllllllllllllllllllllllllllllllllllllllllllllllllllllllllllllllllllllllllllll-Ozzzzzzzz",
"zzzzzzzX&lllllllllllllllllllllllllllllllllllllllllllllllllllllllllllllllllllll;lllll;llllllllllllllllllllllllllllll;lll&.zzzzzzz",
"zzzzzzz+;llllllllllllllllllllllllllllllllllllllllllllllllllllllllllllllllllllllllllllllllllllllllllllllllllllllllllllll;+zzzzzzz",
"zzzzzz.*lllllllllllllllllllllllllllllllllllllllllllllllllllllllllllllllllllllllllllllllll;lllllllllllllllll;llllllllllll*Xzzzzzz",
"zzzzzz+;ll,676666666667666666767676766766676776676776lllllllllllllllllll;lllllllllllllllllll;lllllllllllllllllllllllllll;+zzzzzz",
"zzzzz *lll7hhhhhhhjtjhhhjhhhhhhhhhhhhhhhhhhhhhhhhhhhj7llllllllllllllllllllllllllllllllllllllllllllllll;lllllllllllllllll;& zzzzz",
"zzzzz+;lll7kkkjkjkjjkjkjkjjkjkjkjkjkjjkjkkkjjkjkjkjjj6llllllllllllllllllllllllllllllllllllllllllllllllllll;llllllllllllll-+zzzzz",
"zzzzz%;lll7kjjjjjjjjjjjjjjjjjjjjjjjjjjjjjjjjjjjjjjjjj6llllllllllllllll;llllllllllll;llllllllllllllllllllllllllllllllllllll%zzzzz",
"zzzzo=llll7kjjjjjjjjjjjjjjjjjjjjjjjjjjjjjjjjjjjjjjjjj6lllllllllllllllllllllllllllllllllllllllllllllllllllllllll;llllllllll-ozzzz",
"zzzz#lllll7kjjjjjjjjjjjjjjjjjjjjjjjjjjjjjjjjjjjjjjjjj6llllllllllllllllll;llllllllllllllllllllllllllllllllllllllllllll;lllll@zzzz",
"zzzX*lllll7kjjjjjjkjjjjjjjjjjjjjjjjjjkjjjjjjjjjjjjjjj6llllllllllllllllllllllllllllllllllllllllllllllllllllllllllllllllllll;&.zzz",
"zzzo;lllll7kjjjjjjjjjjjjjjjjjjjihjjjjjjjjjjjjjjjjjjjj6lllllllllllllllllllllllllll;llllll;lllllllllllllllllllllllllllllllll;;ozzz",
"zzz#llllll6kjjjjjjjjjjjjjjjjkjt6ekjjjjjjjjjjjjjjjjjjj6llllllllllllllllllllllllllllllllllllllllllll;llllllllllllllllllllllll;@zzz",
"zz &llllll7kjjjjjjjjjjjjjjjjjjwl6hjjjjjjjjjjjjjjjjjjj6lllllllllllllllllllllllllllllllllllllllllllllllllllllllllllllllllllll;*.zz",
"zzX-llllll7jjjjjjjjjjjjjjjjjjg7llakkkjjjjjjjjjjjjjjjj6llllllllllll;llllllllllllllllllllllllllllll;llllllllllllllllllllllllll-Xzz",
"zz@;;lllll7jjjjjjjjjjjjjjkjjkilllrhkjjjjjjjjjjjjjjjjj6llllllllllllllllllllllllllllllllllllllllllllllllllllllllllllllllllllll;+zz",
"zz$lllllll7kjjjjjjjjjjjjjjjjt9lllldkjjjjjjjjjjjjjjjjj6lllllllllllllllllllllllllllllllllllllllllllllllllllllllllllllll;lllllll$zz",
"z &lllllll7kjjjjjjjjjjjjjjjjslllllqjjjjjjjjjjjjkjjjjj6lllllllllllllllllllll;lllllllllllllllllllllllllllllllllllllll;lllllllll& z",
"zo=lllllll7kjjjjjjjjjjjjjjjh8lllll1gkjjjjjjjjjjjjjjjj6llllllllllllllllllll;llllllllllllllllllllllllllllllllllllllllllllllllll=oz",
"z+-lllllll7kjjjjjjjjjjjjjjjd1llllllwjjjjjjjjjjjjjjjjj6lllllllllllllllllllllllllllllllllllllllllllllllllllllllllllllllllllllll-+z",
"z@llllllll7kjjjjjjjjjjkjjjjrlllllll6hjjjjjjjjjjjjjjjj6lllllllllllllllllllllllllllllllllllllllllllllllllllllllllllllllllllllll;@z",
"z#lll;llll7kjjjjjkjjjjjjkkd3llllllllukjjjjjkjjjjjjjjj6llllllllll;llllllllllllllllllll6www8:llllllllllllll;llllllllllllllllllll#z",
"z$llllllll6kjjjjjjjjjjjjjjelllllllllrhkjkjjjjjjjjjjjj6lllllll39ww82:lllllllllllllllllekjjd>lllllllllllllllllllllllllllllllllll%z",
"X&llllllll7kjjjjjjjjjjjjkg6llllllllllpkjjjjjjjjjjjjjj6lllll2athhjhf8ll;llllllllllllllekjkf>lll;llllllllllllllllllll;llllllllll&.",
"o*llllllll7kjjjjjjjjjjjjjalllll81llllrhjjjjjjjjjjjjjk6llll2dkjjjjjki;llllllllllllllllekjjf>lllllllllllllllllllllllllllllllllll*o",
"o-lll;llll7kjjjjjjjjjjjjt7llll8twllll1gjjjjjjjjjjjjjh6llllskjjjkjkhwll>>>,,>lllll>>><ajjjf>ll;>>>,:ll:>,,:ll:,>,:llllllllllll;=o",
"o-llllllll7kjjjjjjjjjjjjsllllluks1llllwjjjjjjjjjjjjjj6lll7hkkjkkhht2,qdtgggd8;ll4ygghhjjjd>l2wdgffy4:wgfgw:lwfggwlllllllllllll-o",
"o;llllllll7kjjjjjjjjjjjjqllll7tjjrllll<hjjjjjjjjjjjjj6lllsjjjjar098;8hhkjjjjg7l,djjjjjjjjf>2shkkkkjs,whjjf>2sjjh9;llllllll;lll;o",
"o;;lllllll7kjjjjkjjjjjjd3llllwkjjs1llllukjjjjjjjjjjjj6llldkjkg4lllll8kjjjjjjkylwhkjkjjjjkd>qhkjjkjkh06tjjh79hkjt2llllllllllll;;o",
"o;;lllllll7kjjkjjjjjjjjwllll2tkkjh7llll8hjjjkjjjjjjjj6lllgkkkallllll8kkkkjjkkalykjjhgjjjjd4sjjjhhjhki,ajjkaijjji>llllllllllll;;o",
"Olllllllll7kjjjjjjjkjjg4lll:0hjjjjsllll>pkjjjjjjjjjjj6llldkjkyllllll2qwwefjjka,akjjd9gjjkd8hjjjwwhjkd3rhjjhtkjj7;llllllllll;ll;o",
"olllllllll7kjjjjjjjjjjyllll>dkjjjjh4llll0hjjjjjjjjjjj6ll>djjkpllllllll,rugjjka8gkjjy<sjjjd8hjjjaahjjh71gjjkjjks1;lllllllllllll;o",
"olllllllll7kjjjjjjjjjg4lll;5hkjjjjjilllllgkjjjjjjjjjj6ll:dkjkalllllllufhhjjjkdehjjje>ikjkd8hjjjjjjjjk8>yjkjkjkw:lllllllllllll;;o",
"o;llllllll7kjjjjjjjjka,lll>ykjjjjjjf3llllejjjjjjjjjjj6ll:dkkkd2lllllqhjjkkjjkgyhkkhw:ukjjf8hkjjjkkkjk8:ihjjkjkw;lllllllllllll;;o",
"o-llllllll7jjjjjjjjjh8llll6hkjjjjjjjqllll3hkjjjjjjjjj6llldkjjjqllll1djjjhhjjkhagkjjy:ukjjd8hkkju8777711fkkjkjka2llllllllllllll-o",
"o=llllllll7jjjjjjjjjs2lll:wjjjjjjjjkd2llllukjjjjjjjjj6lllfkjjjgi9626hjjkqwhjjhudjjjgwsjjkd8hkjkdq311>lrhhkhtjjh7llll;lllllllll=o",
"o*llllllll7kjjjjjjjjwllll2tjthjjjjjjh8llll6hkjjjjjjjj6lllwjjjjjjhhggjjjjisjjkhrykjjjhhjjkd6fjjjjjtthw:pjjkpijjji>lllllllllllll*o",
".*llllllll7kjjjjjjjd3lll;wjt96yhkjjjjs1llllpkjjjjjjjj6lll,fjjjjjjjkhhjjjhjjjkjrijjjjkkjjjf,wjjjjkkjki6gjkh60hjkt2lllllllllllll&.",
"z%llllllll7kjjjjjjhillll,dh9:l>6ahkkjg3llllqjkjjjjjjj6llll8hkjkjjkkswjjkkkkjjk03tjjkkhjjjg>2djjjjkjkiejjjf,,akjjwlllllllllllll%z",
"z#llllllll7kjjjjjjg6lll:5tqlllll>8ahkjyllll1dkjjjjjjj6lllll9dkkkkkhw2skkjaajkj9:uhkkt9skkd>;6sjkkkkf0ikkkw:lejkka;llllllllllll#z",
"z@;lllllll7kjjjjjja>lll>ya,lllllll>9ajd1llllqjkjjjjjj6llllll290q057>l29r9,,9591l>8006:4907:l;2500054>40r9,ll29006llllll;llll;;@z",
"z+-lllllll7kjjjjkh8llll6f8:lllllllll,8a8llll2tjjjjjjj6llllllllllllllllllll;lllllllllllllllllllllll;;lllllllllllllllllllllllll-+z",
"zo=lllllll7kjjjjjs2lll:ejgw2:lllllllll>llllllukjjjjjj6lllllllllll;lllllllllllllllllllllllllllllllllllllllllllllllllllllllllll=Xz",
"z &lllllll7kjjjjh0llll3gjjhd0,lllllllllllllll6jjjjjjj6llllllllllllllll;lllll;lllllllll;lllll;llllllllllllllllllllllllllllllll* z",
"zz$;llllll7kjjjkf3lll:whjjjjhs8>llllllllllllllykjjjjj6lllllllllllllllllllllllllllllllllllllllllllllll;llllllllllllllllllllll;%zz",
"zz@;llllll7kjjjjillll,fkjjjjjjha6,llllllllllll9jjjjjj6llllllllllllllllllllllllllllllllllllllllllllllllllllllllllllllllllll;;;+zz",
"zzX-llllll7kkjjg6lll;9hjjjjjjjjjhi6lllllllllll,dkjjjj6llllllllllllllllllllllll;lllllllllllllllllllllllllllllllllllllllllllll-Xzz",
"zz &llllll7kjjka:lll>pkjjjjjjjjjjjgu4llllllllllejkjjj6llllllllllllllllllllllllllllllllllllllllllllllllllllll;lllllllll;lllll* zz",
"zzz#llllll6kjjh7llll7hjjjjjjjjjjjjkkfe2llllllll2gkkjj6llllllllllllllllllllllllllllllllllllllllllllllllllllllllllllllllllllll@zzz",
"zzzo-lllll7kjjs1lll>ekjjjjjjjjjjjjjjkjfq2lllllllijjjj6llllllllllllll;llllllllllllllllllllllllllllllllllllllllllllllllllllll-ozzz",
"zzzX&lllll7kjhqllll3fjjjjjjjjjjjjkjjjjjjdqllllll4hkjj6llllllllllllllllllllllllllllllllllllllllllll;lllllllllllll;llllllllll&Xzzz",
"zzzz@lllll7kjf4lll:0kjjjjjjjjjjjjjjjjjjjkjg91lll,akjj6llllllllllllllllllllllllllllllllllll;llllllllllllllllllllllllllllllll@zzzz",
"zzzzo-llll7kjullll,dkjjjjjjjjjjjjjjjjjjjjjjhd81llqkjj6lllllllllllllllllllll;lllllllllllllllllllllllll;llllllllllllllllllll=ozzzz",
"zzzzz%llll7kg7ll;;9hkjkjjkjjjjjjjjjjjjjjjjjjjha9l2djj6llllllllllllllllllllllllllllllll;lllllllllllllllllllllllllllllllllll%zzzzz",
"zzzzz+-lll7jplll;>pkkjjjjjjjjjjjjjjjjjjjjjjjjjjha9pkk6llllllllllllllllllllllllllllllllllll;llllllllllllllllllllllllllll;l;+zzzzz",
"zzzzz *;ll7jp4464qtkjjjjjjjjjjjjjjjjjjjjjjjjjjjkjhhjj6lllllllllllllll;lllllllllllllllllllllllllllllllllllll;lllllllllllll& zzzzz",
"zzzzzz+;ll7kjhhhhhjjjjjjjjjkjjjjjjjjjjjjjjjjjjjjjjjjj4llllllllllllllllllllllllllllllllllllllllllllllllllllllllllllllllll;+zzzzzz",
"zzzzzzX*ll7kjjjjjjjjjjjjjjjjjjjjjjjjjjjjjjjjjjjjjjjjj6lllllll;lll;lllllllllllllllllllllllllllll;llllllllllllllllllllllll*.zzzzzz",
"zzzzzzz+ll7kjjjjkjjjjjkkjjjjjjjjjjjjjjjjjjjjjjjjjjjjj6lllllllllllllllllllllllllllllllllllllllllllllllllllllllllllllllll;+zzzzzzz",
"zzzzzzz.*l7kjjjjkkjjjjjkjjjjjjjjjkjjjkjjjjjkjjjjjkjjj6llllllllllllllllllllllllllllllllllllllllllllll;llllllllllllllllll&.zzzzzzz",
"zzzzzzzz@;7kkkjjkkkkkkkkkkkkkkkkkkkkkkkkkkkkkkkkkkkkk6lllllllllllllllllllllllllll;llllllllllllllllllllllllllll;lllllll-+zzzzzzzz",
"zzzzzzzz %4aaaapaaapapapaaaaaaaaapaaapaaaaapaaaaapaaa<llllllllllllllllllllll;llllllllllllllllllllllllllllllllllllllll;% zzzzzzzz",
"zzzzzzzzzo=;;;llll;l;ll;l;;l;ll;;l;l;l;l;l;l;l;l;l;l;llllllll;llll;lllllllllllllllll;llllllllllllllllllllllllllllllll=ozzzzzzzzz",
"zzzzzzzzzz@;llllllllllllllllllllllllllllllllllllllllllllllllllllllllllllllllllllllllllllllllllllll;lllllllllllllllll;@zzzzzzzzzz",
"zzzzzzzzzz.&llllllllllllllllllllllllllllllllllllllllllllllllllllllllllllllllllllllllllllllllllllllllllllllllllllllll%.zzzzzzzzzz",
"zzzzzzzzzzzo=llllllllllllllllllllllllllllllllllllllllllllllllllllllllllllllllllllllllllll;lllllllllllllllllllllllll=ozzzzzzzzzzz",
"zzzzzzzzzzzz+;lllllllll;llllllllllllllllllll;lllllllllllllllllllllllllllllllllllllllllllllllllll;lllllllllllllllll;+zzzzzzzzzzzz",
"zzzzzzzzzzzz $;llllllllllllllllllllllllllllllllllllllllllllllll;llllllllllllll;lllllllllllllllllllllllllllllllllll$ zzzzzzzzzzzz",
"zzzzzzzzzzzzzX&llllllllllllllllllllll;lllllllllllllllllllllllllllllllllllll;lllllllllllllllllll;lllllllllllllllll%Xzzzzzzzzzzzzz",
"zzzzzzzzzzzzzzX=llllllllllllllllllllllllllllllll;lllllllllllllllllllllllllllllllllllllllllllllllllllllllllllllll*ozzzzzzzzzzzzzz",
"zzzzzzzzzzzzzzzo=llllllll;lllllllllllllllllllllllllllllllllllllllllllllllllllllllllllllllllllllllllllllllllllll=ozzzzzzzzzzzzzzz",
"zzzzzzzzzzzzzzzz+-lllllllllllllllllllllllllllllllllllllllllllllllllll;llllllllllllllllllllllllllllllllllllllll-Ozzzzzzzzzzzzzzzz",
"zzzzzzzzzzzzzzzzz+-;lllllllllllllll;lllllllllllllllllllllllllllllllllllllllllllll;llllllllllllllllllllllllll;-@zzzzzzzzzzzzzzzzz",
"zzzzzzzzzzzzzzzzzz@-lllllllllllllllllllllllllllllllllllllllllllllllllllllll;llllllllllllllllllllllllllllllll-@zzzzzzzzzzzzzzzzzz",
"zzzzzzzzzzzzzzzzzzz+-lllllllllllllllllllll;llllllllllllllllllllllllllllllllllllllllllllllllllllllllllllllll-+zzzzzzzzzzzzzzzzzzz",
"zzzzzzzzzzzzzzzzzzzz+-lllllllllllllllllllllll;lllllllllllllllllllllllllllllllllllll;llllllllllllllllllllll-+zzzzzzzzzzzzzzzzzzzz",
"zzzzzzzzzzzzzzzzzzzzzo=lllll;llllllllllllllllllllllllll;ll;llllllllllllllllllllllllllllllllllllllllllllll*ozzzzzzzzzzzzzzzzzzzzz",
"zzzzzzzzzzzzzzzzzzzzzzo&llllllllllllllllllllllllllllllllllllllll;llllllllllllllllllllllllllllllllllll;ll*ozzzzzzzzzzzzzzzzzzzzzz",
"zzzzzzzzzzzzzzzzzzzzzzzX%;lllllllllllllllllllllllllllllllllllllllllllllllllllllllllllllllllllllllllll;;%Xzzzzzzzzzzzzzzzzzzzzzzz",
"zzzzzzzzzzzzzzzzzzzzzzzz.@-llllllllllllllllllllll;lllllllllllllllllllllllllllllllllllllllllllllllllll-@.zzzzzzzzzzzzzzzzzzzzzzzz",
"zzzzzzzzzzzzzzzzzzzzzzzzzzo*llllllllllllllllllllllllllllllllllllllllllllllllll;lllllllllllllllllllll*ozzzzzzzzzzzzzzzzzzzzzzzzzz",
"zzzzzzzzzzzzzzzzzzzzzzzzzzzX$-llllllllllllllllllllllllllllllllllllllllllllllllllllllllllllllllllll-$Xzzzzzzzzzzzzzzzzzzzzzzzzzzz",
"zzzzzzzzzzzzzzzzzzzzzzzzzzzzzO&;;lllllllllllllllllllllllllllllllllllllllllllllllllllllllllllllll;&+zzzzzzzzzzzzzzzzzzzzzzzzzzzzz",
"zzzzzzzzzzzzzzzzzzzzzzzzzzzzzz.#=;lllllllllllllllllllllllllllll;lllllll;llllllllllllllllllllll;=@.zzzzzzzzzzzzzzzzzzzzzzzzzzzzzz",
"zzzzzzzzzzzzzzzzzzzzzzzzzzzzzzzzo$=;lllllll;lllllllllllllllllllllllllllllllllllllllllllllllll=$Xzzzzzzzzzzzzzzzzzzzzzzzzzzzzzzzz",
"zzzzzzzzzzzzzzzzzzzzzzzzzzzzzzzzzzo$-;l;llllllllllllllllll;lllllllllllllllllllllllllllllll;-$ozzzzzzzzzzzzzzzzzzzzzzzzzzzzzzzzzz",
"zzzzzzzzzzzzzzzzzzzzzzzzzzzzzzzzzzzzo#=;llllllllllllllllllllllllllllllllllllllllllllllll;=#ozzzzzzzzzzzzzzzzzzzzzzzzzzzzzzzzzzzz",
"zzzzzzzzzzzzzzzzzzzzzzzzzzzzzzzzzzzzzz.#&;lllllllllllllllllllllllll;llllllllllllllllll-%@Xzzzzzzzzzzzzzzzzzzzzzzzzzzzzzzzzzzzzzz",
"zzzzzzzzzzzzzzzzzzzzzzzzzzzzzzzzzzzzzzzz.O#*;;lll;llllllllllllllllllllllllllllllll;;*#+.zzzzzzzzzzzzzzzzzzzzzzzzzzzzzzzzzzzzzzzz",
"zzzzzzzzzzzzzzzzzzzzzzzzzzzzzzzzzzzzzzzzzzzXo#*-;;lllllllllllllllllllll;;lllll;;-*#oXzzzzzzzzzzzzzzzzzzzzzzzzzzzzzzzzzzzzzzzzzzz",
"zzzzzzzzzzzzzzzzzzzzzzzzzzzzzzzzzzzzzzzzzzzzzz X@$&=-;llllll;;llllllllllll;-=&$@X zzzzzzzzzzzzzzzzzzzzzzzzzzzzzzzzzzzzzzzzzzzzzz",
"zzzzzzzzzzzzzzzzzzzzzzzzzzzzzzzzzzzzzzzzzzzzzzzzzz o+@#$%*=--;;l;;;--=*&$@@+o zzzzzzzzzzzzzzzzzzzzzzzzzzzzzzzzzzzzzzzzzzzzzzzzzz",
"zzzzzzzzzzzzzzzzzzzzzzzzzzzzzzzzzzzzzzzzzzzzzzzzzzzzzzzz.oooooooooooooXXzzzzzzzzzzzzzzzzzzzzzzzzzzzzzzzzzzzzzzzzzzzzzzzzzzzzzzzz",
"zzzzzzzzzzzzzzzzzzzzzzzzzzzzzzzzzzzzzzzzzzzzzzzzzzzzzzzzzzzzzzzzzzzzzzzzzzzzzzzzzzzzzzzzzzzzzzzzzzzzzzzzzzzzzzzzzzzzzzzzzzzzzzzz"
};
