/* XPM */
static char *_2[] = {
/* columns rows colors chars-per-pixel */
"32 32 170 2 ",
"   c #005200",
".  c #005300",
"X  c #005A00",
"o  c #005C00",
"O  c #005D00",
"+  c #215800",
"@  c #006000",
"#  c #006100",
"$  c #006200",
"%  c #006600",
"&  c #006800",
"*  c #006900",
"=  c #006A00",
"-  c #006B00",
";  c #006C00",
":  c #006D00",
">  c #006E00",
",  c #006F00",
"<  c #007000",
"1  c #007200",
"2  c #007300",
"3  c #007500",
"4  c #057400",
"5  c #007A00",
"6  c #007C00",
"7  c #007D00",
"8  c #007E00",
"9  c #007F00",
"0  c #047F00",
"q  c #057F00",
"w  c #067F00",
"e  c #077F00",
"r  c #087E00",
"t  c #097E00",
"y  c #087F00",
"u  c #0A7E00",
"i  c #0B7E00",
"p  c #0E7D00",
"a  c #0F7D00",
"s  c #0D7E00",
"d  c #0F7E00",
"f  c #107D00",
"g  c #117D00",
"h  c #127D00",
"j  c #137D00",
"k  c #107E00",
"l  c #147C00",
"z  c #157C00",
"x  c #177C00",
"c  c #1A7B00",
"v  c #1C7B00",
"b  c #1D7B00",
"n  c #217A00",
"m  c #227A00",
"M  c #237A00",
"N  c #267900",
"B  c #247A00",
"V  c #287900",
"C  c #2C7800",
"Z  c #337700",
"A  c #357700",
"S  c #3B7400",
"D  c #387600",
"F  c #397600",
"G  c #3B7600",
"H  c #3C7500",
"J  c #3E7500",
"K  c #4B6800",
"L  c #457300",
"P  c #477300",
"I  c #417500",
"U  c #427400",
"Y  c #457400",
"T  c #467400",
"R  c #477400",
"E  c #487300",
"W  c #497300",
"Q  c #4A7300",
"!  c #4B7300",
"~  c #4D7200",
"^  c #4C7300",
"/  c #4E7200",
"(  c #4B7400",
")  c #4C7400",
"_  c #537100",
"`  c #507200",
"'  c #567100",
"]  c #587000",
"[  c #587100",
"{  c #5E7000",
"}  c #606F00",
"|  c #616F00",
" . c #626F00",
".. c #636F00",
"X. c #646E00",
"o. c #646F00",
"O. c #676E00",
"+. c #696D00",
"@. c #6A6D00",
"#. c #6B6D00",
"$. c #756B00",
"%. c #766B00",
"&. c #776B00",
"*. c #736C00",
"=. c #756C00",
"-. c #786B00",
";. c #796B00",
":. c #B95F00",
">. c #BC5F00",
",. c #BD5F00",
"<. c #BF5E00",
"1. c #BE5F00",
"2. c #8C6700",
"3. c #8E6700",
"4. c #8F6700",
"5. c #826900",
"6. c #836900",
"7. c #876800",
"8. c #886800",
"9. c #896800",
"0. c #8C6800",
"q. c #926600",
"w. c #926700",
"e. c #976500",
"r. c #946600",
"t. c #956600",
"y. c #966600",
"u. c #9A6500",
"i. c #9D6400",
"p. c #9C6500",
"a. c #9D6500",
"s. c #A46300",
"d. c #A56300",
"f. c #A66300",
"g. c #A76300",
"h. c #A96200",
"j. c #A86300",
"k. c #A96300",
"l. c #AA6200",
"z. c #AD6200",
"x. c #AE6200",
"c. c #B06100",
"v. c #B36100",
"b. c #B46000",
"n. c #B56000",
"m. c #B66000",
"M. c #B76000",
"N. c #C05E00",
"B. c #C25E00",
"V. c #C35E00",
"C. c #C65D00",
"Z. c #C45E00",
"A. c #C55E00",
"S. c #C85D00",
"D. c #CB5C00",
"F. c #CA5D00",
"G. c #CC5C00",
"H. c #CD5C00",
"J. c #CE5C00",
"K. c #CF5C00",
"L. c #D15B00",
"P. c #D25B00",
"I. c #D05C00",
"U. c #D15C00",
"Y. c #008000",
"T. c #018000",
"R. c #008100",
"E. c #028000",
"W. c #038000",
"Q. c None",
/* pixels */
"Q.Q.Q.Q.Q.Q.Q.Q.Q.Q.Q.Q.Q.Q.Q.Q.Q.Q.Q.Q.Q.Q.Q.Q.Q.Q.Q.Q.Q.Q.Q.Q.",
"Q.Q.Q.Q.Q.Q.Q.Q.Q.Q.Q.Q.O * , < , * % O Q.Q.Q.Q.Q.Q.Q.Q.Q.Q.Q.Q.",
"Q.Q.Q.Q.Q.Q.Q.Q.Q.O < 7 7 Y.Y.Y.Y.Y.Y.7 5 < $ Q.Q.Q.Q.Q.Q.Q.Q.Q.",
"Q.Q.Q.Q.Q.Q.Q.X < Y.Y.Y.Y.Y.Y.Y.Y.Y.Y.Y.Y.Y.7 2 X Q.Q.Q.Q.Q.Q.Q.",
"Q.Q.Q.Q.Q.Q.* 7 Y.Y.Y.Y.Y.Y.Y.Y.Y.Y.Y.Y.Y.Y.Y.R.7 * Q.Q.Q.Q.Q.Q.",
"Q.Q.Q.Q.Q., Y.Y.Y.Y.Y.Y.Y.Y.Y.Y.Y.Y.Y.Y.Y.Y.Y.Y.Y.Y.< Q.Q.Q.Q.Q.",
"Q.Q.Q.Q.< Y.Y.Y.Y.Y.Y.Y.Y.Y.Y.Y.Y.Y.Y.Y.Y.Y.Y.Y.Y.Y.Y.< Q.Q.Q.Q.",
"Q.Q.Q.* Y.Y.Y.Y.Y.Y.Y.Y.Y.Y.Y.Y.Y.Y.Y.Y.Y.Y.Y.Y.Y.Y.Y.Y.* Q.Q.Q.",
"Q.Q.O 7 7 Y.Y.7 Y.Y.Y.Y.Y.Y.Y.Y.Y.Y.Y.Y.Y.Y.Y.Y.Y.Y.Y.Y.7 O Q.Q.",
"Q.Q.4 d d d d d d d d d j W.Y.Y.Y.Y.Y.Y.Y.Y.Y.Y.Y.Y.Y.Y.Y.2 Q.Q.",
"Q.$ G k.k.k.k.k.k.k.k.g.g.G Y.Y.Y.Y.Y.Y.Y.Y.Y.Y.Y.Y.Y.Y.Y.Y.$ Q.",
"Q.2 ( I.I.J.L.S.S.L.K.L.I.( Y.Y.Y.Y.Y.Y.Y.Y.Y.Y.Y.Y.Y.Y.Y.R.< Q.",
". 7 Q J.J.J.I.-.2.I.J.J.J.Q Y.Y.Y.Y.Y.Y.Y.Y.Y.Y.Y.Y.Y.Y.Y.Y.7 . ",
"$ Y.Q J.J.J.>.N G S.J.J.J.P Y.Y.Y.Y.Y.Y.Y.Y.Y.Y.Y.Y.Y.Y.Y.Y.7 $ ",
"% Y.Q J.J.L.6.e j i.L.J.J.P d _ / W.Y.Y.Y.{ ( Y.Y.Y.Y.Y.Y.Y.Y.* ",
", Y.Q J.I.A.D / D _ J.J.S.Q @.m.=. .;.D @.m.%.| O.] ` | x Y.Y., ",
", Y.Q K.I.t.c g.9.v x.I.J.( 3.o.e %.A.u.b.b.g.>.>.q.>.i.d 7 Y., ",
", Y.Q K.S.( T S.V.C @.I.J.( 9.w.I g.V.:.v.k.k.V.q.*.A.t.e 7 Y., ",
"% Y.Q K.k.v _ ) q.O.N >.J.T I z.i.u.g.7.u.g.*.t.i.7.%.2.n Y.Y.* ",
"$ Y.Q K.| Z 6.N d n i 6.J.P Y.j j i j d d j i d l j i d e Y.7 $ ",
". 7 ) m.N ;.I.m.@.c Y.D A.( Y.Y.7 Y.Y.Y.Y.Y.Y.Y.Y.Y.Y.Y.Y.Y.7 . ",
"Q.< ( =.n m.I.I.J.v. .n t.( Y.Y.Y.Y.Y.Y.Y.Y.Y.Y.Y.Y.Y.Y.Y.Y.< Q.",
"Q.$ P | =.J.J.I.J.I.J.k.g.T R.Y.Y.Y.Y.Y.Y.Y.Y.Y.Y.Y.Y.Y.Y.Y.$ Q.",
"Q.Q.K A.S.J.S.S.S.J.S.J.F.T R.Y.Y.Y.Y.Y.Y.Y.Y.Y.Y.Y.Y.Y.Y.2 Q.Q.",
"Q.Q.+ D G G G G G G G G G x Y.Y.Y.Y.Y.Y.Y.Y.Y.Y.Y.Y.Y.Y.7 O Q.Q.",
"Q.Q.Q.* Y.Y.Y.Y.Y.Y.R.R.R.Y.Y.Y.Y.Y.Y.Y.Y.Y.Y.Y.Y.Y.Y.Y., Q.Q.Q.",
"Q.Q.Q.Q.< Y.Y.Y.Y.Y.Y.Y.Y.Y.Y.Y.Y.Y.Y.Y.Y.Y.Y.Y.Y.Y.Y.< Q.Q.Q.Q.",
"Q.Q.Q.Q.Q.< Y.Y.Y.Y.Y.Y.Y.Y.Y.Y.Y.Y.Y.Y.Y.Y.Y.Y.Y.Y.< Q.Q.Q.Q.Q.",
"Q.Q.Q.Q.Q.Q.* 7 Y.Y.Y.Y.Y.Y.Y.Y.Y.Y.Y.Y.Y.Y.Y.Y.7 * Q.Q.Q.Q.Q.Q.",
"Q.Q.Q.Q.Q.Q.Q.X 2 7 Y.Y.Y.Y.Y.Y.Y.Y.Y.Y.Y.Y.7 2 X Q.Q.Q.Q.Q.Q.Q.",
"Q.Q.Q.Q.Q.Q.Q.Q.Q.O , 5 Y.Y.Y.Y.Y.7 Y.Y.5 , O Q.Q.Q.Q.Q.Q.Q.Q.Q.",
"Q.Q.Q.Q.Q.Q.Q.Q.Q.Q.Q.Q.O * * , , , % O Q.Q.Q.Q.Q.Q.Q.Q.Q.Q.Q.Q."
};
